<mxfile host="app.diagrams.net" agent="Mozilla/5.0 (Windows NT 10.0; Win64; x64) AppleWebKit/537.36 (KHTML, like Gecko) Chrome/136.0.0.0 Safari/537.36" version="27.0.2">
  <diagram name="Page-1" id="jBGDROtmWJV_Q_gBwjGa">
    <mxGraphModel dx="3601" dy="2296" grid="1" gridSize="10" guides="1" tooltips="1" connect="1" arrows="1" fold="1" page="1" pageScale="1" pageWidth="850" pageHeight="1100" math="0" shadow="0">
      <root>
        <mxCell id="0" />
        <mxCell id="1" parent="0" />
        <mxCell id="4y1BVkQ9TwGUfJzdX5UH-1" value="" style="shape=umlLifeline;perimeter=lifelinePerimeter;whiteSpace=wrap;html=1;container=1;dropTarget=0;collapsible=0;recursiveResize=0;outlineConnect=0;portConstraint=eastwest;newEdgeStyle={&quot;curved&quot;:0,&quot;rounded&quot;:0};participant=umlActor;" vertex="1" parent="1">
          <mxGeometry x="-830" y="-40" width="30" height="1720" as="geometry" />
        </mxCell>
        <mxCell id="4y1BVkQ9TwGUfJzdX5UH-2" value="SimpleReaderHomepage" style="shape=umlLifeline;perimeter=lifelinePerimeter;whiteSpace=wrap;html=1;container=1;dropTarget=0;collapsible=0;recursiveResize=0;outlineConnect=0;portConstraint=eastwest;newEdgeStyle={&quot;curved&quot;:0,&quot;rounded&quot;:0};fontSize=14;fontStyle=1;fillColor=#dae8fc;strokeColor=#6c8ebf;" vertex="1" parent="1">
          <mxGeometry x="-690" y="-40" width="200" height="1720" as="geometry" />
        </mxCell>
        <mxCell id="4y1BVkQ9TwGUfJzdX5UH-3" value="" style="html=1;points=[[0,0,0,0,5],[0,1,0,0,-5],[1,0,0,0,5],[1,1,0,0,-5]];perimeter=orthogonalPerimeter;outlineConnect=0;targetShapes=umlLifeline;portConstraint=eastwest;newEdgeStyle={&quot;curved&quot;:0,&quot;rounded&quot;:0};strokeColor=#000000;fillColor=#dae8fc;" vertex="1" parent="4y1BVkQ9TwGUfJzdX5UH-2">
          <mxGeometry x="90" y="90" width="10" height="250" as="geometry" />
        </mxCell>
        <mxCell id="4y1BVkQ9TwGUfJzdX5UH-4" value="SimpleReaderController" style="shape=umlLifeline;perimeter=lifelinePerimeter;whiteSpace=wrap;html=1;container=1;dropTarget=0;collapsible=0;recursiveResize=0;outlineConnect=0;portConstraint=eastwest;newEdgeStyle={&quot;curved&quot;:0,&quot;rounded&quot;:0};fontSize=14;fontStyle=1;fillColor=#dae8fc;strokeColor=#6c8ebf;" vertex="1" parent="1">
          <mxGeometry x="-440" y="-40" width="190" height="2080" as="geometry" />
        </mxCell>
        <mxCell id="4y1BVkQ9TwGUfJzdX5UH-5" value="" style="html=1;points=[[0,0,0,0,5],[0,1,0,0,-5],[1,0,0,0,5],[1,1,0,0,-5]];perimeter=orthogonalPerimeter;outlineConnect=0;targetShapes=umlLifeline;portConstraint=eastwest;newEdgeStyle={&quot;curved&quot;:0,&quot;rounded&quot;:0};strokeColor=#000000;fillColor=#dae8fc;" vertex="1" parent="4y1BVkQ9TwGUfJzdX5UH-4">
          <mxGeometry x="90" y="140" width="10" height="330" as="geometry" />
        </mxCell>
        <mxCell id="4y1BVkQ9TwGUfJzdX5UH-8" value="" style="html=1;points=[[0,0,0,0,5],[0,1,0,0,-5],[1,0,0,0,5],[1,1,0,0,-5]];perimeter=orthogonalPerimeter;outlineConnect=0;targetShapes=umlLifeline;portConstraint=eastwest;newEdgeStyle={&quot;curved&quot;:0,&quot;rounded&quot;:0};strokeColor=#000000;fillColor=#dae8fc;" vertex="1" parent="4y1BVkQ9TwGUfJzdX5UH-4">
          <mxGeometry x="90" y="760" width="10" height="50" as="geometry" />
        </mxCell>
        <mxCell id="4y1BVkQ9TwGUfJzdX5UH-9" value="" style="html=1;points=[[0,0,0,0,5],[0,1,0,0,-5],[1,0,0,0,5],[1,1,0,0,-5]];perimeter=orthogonalPerimeter;outlineConnect=0;targetShapes=umlLifeline;portConstraint=eastwest;newEdgeStyle={&quot;curved&quot;:0,&quot;rounded&quot;:0};strokeColor=#000000;fillColor=#dae8fc;" vertex="1" parent="4y1BVkQ9TwGUfJzdX5UH-4">
          <mxGeometry x="90" y="1105" width="10" height="405" as="geometry" />
        </mxCell>
        <mxCell id="4y1BVkQ9TwGUfJzdX5UH-7" value="" style="html=1;points=[[0,0,0,0,5],[0,1,0,0,-5],[1,0,0,0,5],[1,1,0,0,-5]];perimeter=orthogonalPerimeter;outlineConnect=0;targetShapes=umlLifeline;portConstraint=eastwest;newEdgeStyle={&quot;curved&quot;:0,&quot;rounded&quot;:0};strokeColor=#000000;fillColor=#dae8fc;" vertex="1" parent="4y1BVkQ9TwGUfJzdX5UH-4">
          <mxGeometry x="90" y="540" width="10" height="120" as="geometry" />
        </mxCell>
        <mxCell id="4y1BVkQ9TwGUfJzdX5UH-37" value="showReviewForm()" style="html=1;verticalAlign=bottom;startArrow=oval;startFill=1;endArrow=block;startSize=8;curved=0;rounded=0;fontSize=13;fontStyle=2;labelBackgroundColor=none;" edge="1" parent="4y1BVkQ9TwGUfJzdX5UH-4" source="4y1BVkQ9TwGUfJzdX5UH-19">
          <mxGeometry x="0.0038" width="60" relative="1" as="geometry">
            <mxPoint x="964.4999999999995" y="568" as="sourcePoint" />
            <mxPoint x="99.99999999999955" y="568" as="targetPoint" />
            <mxPoint as="offset" />
          </mxGeometry>
        </mxCell>
        <mxCell id="4y1BVkQ9TwGUfJzdX5UH-56" value="" style="html=1;points=[[0,0,0,0,5],[0,1,0,0,-5],[1,0,0,0,5],[1,1,0,0,-5]];perimeter=orthogonalPerimeter;outlineConnect=0;targetShapes=umlLifeline;portConstraint=eastwest;newEdgeStyle={&quot;curved&quot;:0,&quot;rounded&quot;:0};strokeColor=#000000;fillColor=#dae8fc;" vertex="1" parent="4y1BVkQ9TwGUfJzdX5UH-4">
          <mxGeometry x="90" y="1030" width="10" height="50" as="geometry" />
        </mxCell>
        <mxCell id="4y1BVkQ9TwGUfJzdX5UH-81" value="" style="html=1;points=[[0,0,0,0,5],[0,1,0,0,-5],[1,0,0,0,5],[1,1,0,0,-5]];perimeter=orthogonalPerimeter;outlineConnect=0;targetShapes=umlLifeline;portConstraint=eastwest;newEdgeStyle={&quot;curved&quot;:0,&quot;rounded&quot;:0};strokeColor=#000000;fillColor=#dae8fc;" vertex="1" parent="4y1BVkQ9TwGUfJzdX5UH-4">
          <mxGeometry x="90" y="1590" width="10" height="50" as="geometry" />
        </mxCell>
        <mxCell id="4y1BVkQ9TwGUfJzdX5UH-84" value="" style="html=1;points=[[0,0,0,0,5],[0,1,0,0,-5],[1,0,0,0,5],[1,1,0,0,-5]];perimeter=orthogonalPerimeter;outlineConnect=0;targetShapes=umlLifeline;portConstraint=eastwest;newEdgeStyle={&quot;curved&quot;:0,&quot;rounded&quot;:0};strokeColor=#000000;fillColor=#dae8fc;" vertex="1" parent="4y1BVkQ9TwGUfJzdX5UH-4">
          <mxGeometry x="90" y="1690" width="10" height="50" as="geometry" />
        </mxCell>
        <mxCell id="4y1BVkQ9TwGUfJzdX5UH-11" value="clicks &quot;My Reads Reviews&quot;" style="html=1;verticalAlign=bottom;startArrow=oval;startFill=1;endArrow=block;startSize=8;curved=0;rounded=0;fontSize=13;fontStyle=2;labelBackgroundColor=none;" edge="1" parent="1">
          <mxGeometry width="60" relative="1" as="geometry">
            <mxPoint x="-810" y="90" as="sourcePoint" />
            <mxPoint x="-595" y="90" as="targetPoint" />
          </mxGeometry>
        </mxCell>
        <mxCell id="4y1BVkQ9TwGUfJzdX5UH-12" value="showReadsReviews()" style="html=1;verticalAlign=bottom;startArrow=oval;startFill=1;endArrow=block;startSize=8;curved=0;rounded=0;fontSize=13;fontStyle=2;labelBackgroundColor=none;" edge="1" parent="1">
          <mxGeometry width="60" relative="1" as="geometry">
            <mxPoint x="-590" y="120" as="sourcePoint" />
            <mxPoint x="-350" y="120" as="targetPoint" />
            <mxPoint as="offset" />
          </mxGeometry>
        </mxCell>
        <mxCell id="4y1BVkQ9TwGUfJzdX5UH-13" value="SimpleReaderService" style="shape=umlLifeline;perimeter=lifelinePerimeter;whiteSpace=wrap;html=1;container=1;dropTarget=0;collapsible=0;recursiveResize=0;outlineConnect=0;portConstraint=eastwest;newEdgeStyle={&quot;curved&quot;:0,&quot;rounded&quot;:0};fontSize=14;fontStyle=1;fillColor=#dae8fc;strokeColor=#6c8ebf;" vertex="1" parent="1">
          <mxGeometry x="-170" y="-40" width="190" height="2210" as="geometry" />
        </mxCell>
        <mxCell id="4y1BVkQ9TwGUfJzdX5UH-14" value="" style="html=1;points=[[0,0,0,0,5],[0,1,0,0,-5],[1,0,0,0,5],[1,1,0,0,-5]];perimeter=orthogonalPerimeter;outlineConnect=0;targetShapes=umlLifeline;portConstraint=eastwest;newEdgeStyle={&quot;curved&quot;:0,&quot;rounded&quot;:0};strokeColor=#000000;fillColor=#dae8fc;" vertex="1" parent="4y1BVkQ9TwGUfJzdX5UH-13">
          <mxGeometry x="90" y="170" width="10" height="260" as="geometry" />
        </mxCell>
        <mxCell id="4y1BVkQ9TwGUfJzdX5UH-85" value="" style="html=1;points=[[0,0,0,0,5],[0,1,0,0,-5],[1,0,0,0,5],[1,1,0,0,-5]];perimeter=orthogonalPerimeter;outlineConnect=0;targetShapes=umlLifeline;portConstraint=eastwest;newEdgeStyle={&quot;curved&quot;:0,&quot;rounded&quot;:0};strokeColor=#000000;fillColor=#dae8fc;" vertex="1" parent="4y1BVkQ9TwGUfJzdX5UH-13">
          <mxGeometry x="90" y="1700" width="10" height="60" as="geometry" />
        </mxCell>
        <mxCell id="4y1BVkQ9TwGUfJzdX5UH-16" value="retrieveReadsReviews()" style="html=1;verticalAlign=bottom;startArrow=oval;startFill=1;endArrow=block;startSize=8;curved=0;rounded=0;fontSize=13;fontStyle=2;labelBackgroundColor=none;" edge="1" parent="1">
          <mxGeometry x="0.0038" width="60" relative="1" as="geometry">
            <mxPoint x="-340" y="150" as="sourcePoint" />
            <mxPoint x="-75" y="150" as="targetPoint" />
            <mxPoint as="offset" />
          </mxGeometry>
        </mxCell>
        <mxCell id="4y1BVkQ9TwGUfJzdX5UH-17" value="Simple Reader" style="text;html=1;align=center;verticalAlign=middle;resizable=0;points=[];autosize=1;strokeColor=none;fillColor=none;fontSize=14;fontStyle=1" vertex="1" parent="1">
          <mxGeometry x="-880" y="-82" width="120" height="30" as="geometry" />
        </mxCell>
        <mxCell id="4y1BVkQ9TwGUfJzdX5UH-18" value="MyReadsReviews" style="shape=umlLifeline;perimeter=lifelinePerimeter;whiteSpace=wrap;html=1;container=1;dropTarget=0;collapsible=0;recursiveResize=0;outlineConnect=0;portConstraint=eastwest;newEdgeStyle={&quot;curved&quot;:0,&quot;rounded&quot;:0};fontSize=14;fontStyle=1;fillColor=#dae8fc;strokeColor=#6c8ebf;" vertex="1" parent="1">
          <mxGeometry x="430" y="-40" width="140" height="2210" as="geometry" />
        </mxCell>
        <mxCell id="4y1BVkQ9TwGUfJzdX5UH-19" value="" style="html=1;points=[[0,0,0,0,5],[0,1,0,0,-5],[1,0,0,0,5],[1,1,0,0,-5]];perimeter=orthogonalPerimeter;outlineConnect=0;targetShapes=umlLifeline;portConstraint=eastwest;newEdgeStyle={&quot;curved&quot;:0,&quot;rounded&quot;:0};strokeColor=#000000;fillColor=#dae8fc;" vertex="1" parent="4y1BVkQ9TwGUfJzdX5UH-18">
          <mxGeometry x="65" y="430" width="10" height="160" as="geometry" />
        </mxCell>
        <mxCell id="4y1BVkQ9TwGUfJzdX5UH-22" value="SimpleReaderMappper" style="shape=umlLifeline;perimeter=lifelinePerimeter;whiteSpace=wrap;html=1;container=1;dropTarget=0;collapsible=0;recursiveResize=0;outlineConnect=0;portConstraint=eastwest;newEdgeStyle={&quot;curved&quot;:0,&quot;rounded&quot;:0};fontSize=14;fontStyle=1;fillColor=#dae8fc;strokeColor=#6c8ebf;" vertex="1" parent="1">
          <mxGeometry x="60" y="-40" width="190" height="2210" as="geometry" />
        </mxCell>
        <mxCell id="4y1BVkQ9TwGUfJzdX5UH-23" value="" style="html=1;points=[[0,0,0,0,5],[0,1,0,0,-5],[1,0,0,0,5],[1,1,0,0,-5]];perimeter=orthogonalPerimeter;outlineConnect=0;targetShapes=umlLifeline;portConstraint=eastwest;newEdgeStyle={&quot;curved&quot;:0,&quot;rounded&quot;:0};strokeColor=#000000;fillColor=#dae8fc;" vertex="1" parent="4y1BVkQ9TwGUfJzdX5UH-22">
          <mxGeometry x="90" y="200" width="10" height="120" as="geometry" />
        </mxCell>
        <mxCell id="4y1BVkQ9TwGUfJzdX5UH-25" value="DBManager" style="shape=umlLifeline;perimeter=lifelinePerimeter;whiteSpace=wrap;html=1;container=1;dropTarget=0;collapsible=0;recursiveResize=0;outlineConnect=0;portConstraint=eastwest;newEdgeStyle={&quot;curved&quot;:0,&quot;rounded&quot;:0};fontSize=14;fontStyle=1;fillColor=#dae8fc;strokeColor=#6c8ebf;" vertex="1" parent="1">
          <mxGeometry x="290" y="-40" width="100" height="2250" as="geometry" />
        </mxCell>
        <mxCell id="4y1BVkQ9TwGUfJzdX5UH-29" value="" style="html=1;points=[[0,0,0,0,5],[0,1,0,0,-5],[1,0,0,0,5],[1,1,0,0,-5]];perimeter=orthogonalPerimeter;outlineConnect=0;targetShapes=umlLifeline;portConstraint=eastwest;newEdgeStyle={&quot;curved&quot;:0,&quot;rounded&quot;:0};strokeColor=#000000;fillColor=#dae8fc;" vertex="1" parent="4y1BVkQ9TwGUfJzdX5UH-25">
          <mxGeometry x="45" y="220" width="10" height="70" as="geometry" />
        </mxCell>
        <mxCell id="4y1BVkQ9TwGUfJzdX5UH-28" value="findBookRead()" style="html=1;verticalAlign=bottom;startArrow=oval;startFill=1;endArrow=block;startSize=8;curved=0;rounded=0;fontSize=13;fontStyle=2;labelBackgroundColor=none;" edge="1" parent="1" target="4y1BVkQ9TwGUfJzdX5UH-23">
          <mxGeometry x="0.0038" width="60" relative="1" as="geometry">
            <mxPoint x="-80" y="180" as="sourcePoint" />
            <mxPoint x="185" y="180" as="targetPoint" />
            <mxPoint as="offset" />
          </mxGeometry>
        </mxCell>
        <mxCell id="4y1BVkQ9TwGUfJzdX5UH-30" value="find Books()" style="html=1;verticalAlign=bottom;startArrow=oval;startFill=1;endArrow=block;startSize=8;curved=0;rounded=0;fontSize=13;fontStyle=2;labelBackgroundColor=none;" edge="1" parent="1" target="4y1BVkQ9TwGUfJzdX5UH-25">
          <mxGeometry x="0.0038" width="60" relative="1" as="geometry">
            <mxPoint x="160" y="200" as="sourcePoint" />
            <mxPoint x="390" y="200" as="targetPoint" />
            <mxPoint as="offset" />
          </mxGeometry>
        </mxCell>
        <mxCell id="4y1BVkQ9TwGUfJzdX5UH-31" value="return books" style="html=1;verticalAlign=bottom;endArrow=open;dashed=1;endSize=8;curved=0;rounded=0;fontStyle=2;fontSize=13;" edge="1" parent="1">
          <mxGeometry relative="1" as="geometry">
            <mxPoint x="339.49999999999955" y="236" as="sourcePoint" />
            <mxPoint x="159.99999999999955" y="236" as="targetPoint" />
          </mxGeometry>
        </mxCell>
        <mxCell id="4y1BVkQ9TwGUfJzdX5UH-32" value="return books" style="html=1;verticalAlign=bottom;endArrow=open;dashed=1;endSize=8;curved=0;rounded=0;fontStyle=2;fontSize=13;" edge="1" parent="1" target="4y1BVkQ9TwGUfJzdX5UH-14">
          <mxGeometry relative="1" as="geometry">
            <mxPoint x="149.49999999999955" y="260" as="sourcePoint" />
            <mxPoint x="-30.000000000000455" y="260" as="targetPoint" />
          </mxGeometry>
        </mxCell>
        <mxCell id="4y1BVkQ9TwGUfJzdX5UH-33" value="sortBooks()" style="html=1;align=left;spacingLeft=2;endArrow=block;rounded=0;edgeStyle=orthogonalEdgeStyle;curved=0;rounded=0;fontSize=13;fontStyle=2" edge="1" parent="1">
          <mxGeometry relative="1" as="geometry">
            <mxPoint x="-70" y="290" as="sourcePoint" />
            <Array as="points">
              <mxPoint x="-40" y="320" />
            </Array>
            <mxPoint x="-65" y="320.05882352941217" as="targetPoint" />
          </mxGeometry>
        </mxCell>
        <mxCell id="4y1BVkQ9TwGUfJzdX5UH-34" value="return books" style="html=1;verticalAlign=bottom;endArrow=open;dashed=1;endSize=8;curved=0;rounded=0;fontStyle=2;fontSize=13;" edge="1" parent="1">
          <mxGeometry relative="1" as="geometry">
            <mxPoint x="-80.00000000000045" y="359" as="sourcePoint" />
            <mxPoint x="-340.00000000000045" y="359" as="targetPoint" />
          </mxGeometry>
        </mxCell>
        <mxCell id="4y1BVkQ9TwGUfJzdX5UH-35" value="call" style="html=1;verticalAlign=bottom;startArrow=oval;startFill=1;endArrow=block;startSize=8;curved=0;rounded=0;fontSize=13;fontStyle=2;labelBackgroundColor=none;" edge="1" parent="1" target="4y1BVkQ9TwGUfJzdX5UH-18">
          <mxGeometry width="60" relative="1" as="geometry">
            <mxPoint x="-340" y="410" as="sourcePoint" />
            <mxPoint x="-100" y="410" as="targetPoint" />
            <mxPoint as="offset" />
          </mxGeometry>
        </mxCell>
        <mxCell id="4y1BVkQ9TwGUfJzdX5UH-36" value="Selects book &amp;amp; clicks &quot;Write review&quot;&amp;nbsp;" style="html=1;verticalAlign=bottom;startArrow=oval;startFill=1;endArrow=block;startSize=8;curved=0;rounded=0;fontSize=13;fontStyle=2;labelBackgroundColor=none;" edge="1" parent="1" target="4y1BVkQ9TwGUfJzdX5UH-18">
          <mxGeometry width="60" relative="1" as="geometry">
            <mxPoint x="-810" y="480" as="sourcePoint" />
            <mxPoint x="-595" y="480" as="targetPoint" />
          </mxGeometry>
        </mxCell>
        <mxCell id="4y1BVkQ9TwGUfJzdX5UH-39" value="WriteReview" style="shape=umlLifeline;perimeter=lifelinePerimeter;whiteSpace=wrap;html=1;container=1;dropTarget=0;collapsible=0;recursiveResize=0;outlineConnect=0;portConstraint=eastwest;newEdgeStyle={&quot;curved&quot;:0,&quot;rounded&quot;:0};fontSize=14;fontStyle=1;fillColor=#dae8fc;strokeColor=#6c8ebf;" vertex="1" parent="1">
          <mxGeometry x="600" y="-40" width="110" height="2210" as="geometry" />
        </mxCell>
        <mxCell id="4y1BVkQ9TwGUfJzdX5UH-40" value="" style="html=1;points=[[0,0,0,0,5],[0,1,0,0,-5],[1,0,0,0,5],[1,1,0,0,-5]];perimeter=orthogonalPerimeter;outlineConnect=0;targetShapes=umlLifeline;portConstraint=eastwest;newEdgeStyle={&quot;curved&quot;:0,&quot;rounded&quot;:0};strokeColor=#000000;fillColor=#dae8fc;" vertex="1" parent="4y1BVkQ9TwGUfJzdX5UH-39">
          <mxGeometry x="50" y="600" width="10" height="200" as="geometry" />
        </mxCell>
        <mxCell id="4y1BVkQ9TwGUfJzdX5UH-41" value="Write a review correct &amp;amp; click &quot;Pusblish&quot;" style="html=1;verticalAlign=bottom;startArrow=oval;startFill=1;endArrow=block;startSize=8;curved=0;rounded=0;fontSize=13;fontStyle=2;labelBackgroundColor=none;" edge="1" parent="1" target="4y1BVkQ9TwGUfJzdX5UH-40">
          <mxGeometry width="60" relative="1" as="geometry">
            <mxPoint x="-810" y="710" as="sourcePoint" />
            <mxPoint x="500" y="710" as="targetPoint" />
          </mxGeometry>
        </mxCell>
        <mxCell id="4y1BVkQ9TwGUfJzdX5UH-42" value="call" style="html=1;verticalAlign=bottom;startArrow=oval;startFill=1;endArrow=block;startSize=8;curved=0;rounded=0;fontSize=13;fontStyle=2;labelBackgroundColor=none;" edge="1" parent="1" target="4y1BVkQ9TwGUfJzdX5UH-39">
          <mxGeometry width="60" relative="1" as="geometry">
            <mxPoint x="-340" y="600" as="sourcePoint" />
            <mxPoint x="500" y="600" as="targetPoint" />
            <mxPoint as="offset" />
          </mxGeometry>
        </mxCell>
        <mxCell id="4y1BVkQ9TwGUfJzdX5UH-43" value="alt" style="shape=umlFrame;whiteSpace=wrap;html=1;pointerEvents=0;" vertex="1" parent="1">
          <mxGeometry x="-910" y="640" width="1790" height="410" as="geometry" />
        </mxCell>
        <mxCell id="4y1BVkQ9TwGUfJzdX5UH-44" value="Fill correct the form of the&amp;nbsp; Review" style="text;html=1;align=center;verticalAlign=middle;resizable=0;points=[];autosize=1;fontSize=14;fontStyle=2;fillColor=#f8cecc;strokeColor=#b85450;" vertex="1" parent="1">
          <mxGeometry x="-790" y="660" width="240" height="30" as="geometry" />
        </mxCell>
        <mxCell id="4y1BVkQ9TwGUfJzdX5UH-45" value="submitReview()" style="html=1;verticalAlign=bottom;startArrow=oval;startFill=1;endArrow=block;startSize=8;curved=0;rounded=0;fontSize=13;fontStyle=2;labelBackgroundColor=none;" edge="1" parent="1" target="4y1BVkQ9TwGUfJzdX5UH-8">
          <mxGeometry x="0.0038" width="60" relative="1" as="geometry">
            <mxPoint x="645" y="750" as="sourcePoint" />
            <mxPoint x="-190.00000000000045" y="750" as="targetPoint" />
            <mxPoint as="offset" />
          </mxGeometry>
        </mxCell>
        <mxCell id="4y1BVkQ9TwGUfJzdX5UH-46" value="Blank Review Text" style="text;html=1;align=center;verticalAlign=middle;resizable=0;points=[];autosize=1;fontSize=14;fontStyle=2;fillColor=#f8cecc;strokeColor=#b85450;" vertex="1" parent="1">
          <mxGeometry x="-770" y="805" width="140" height="30" as="geometry" />
        </mxCell>
        <mxCell id="4y1BVkQ9TwGUfJzdX5UH-47" value="" style="html=1;points=[[0,0,0,0,5],[0,1,0,0,-5],[1,0,0,0,5],[1,1,0,0,-5]];perimeter=orthogonalPerimeter;outlineConnect=0;targetShapes=umlLifeline;portConstraint=eastwest;newEdgeStyle={&quot;curved&quot;:0,&quot;rounded&quot;:0};strokeColor=#000000;fillColor=#dae8fc;" vertex="1" parent="1">
          <mxGeometry x="650" y="835" width="10" height="50" as="geometry" />
        </mxCell>
        <mxCell id="4y1BVkQ9TwGUfJzdX5UH-48" value="leave blank the review text &amp;amp; click &quot;Pusblish&quot;" style="html=1;verticalAlign=bottom;startArrow=oval;startFill=1;endArrow=block;startSize=8;curved=0;rounded=0;fontSize=13;fontStyle=2;labelBackgroundColor=none;" edge="1" parent="1">
          <mxGeometry width="60" relative="1" as="geometry">
            <mxPoint x="-810" y="851" as="sourcePoint" />
            <mxPoint x="650" y="851" as="targetPoint" />
          </mxGeometry>
        </mxCell>
        <mxCell id="4y1BVkQ9TwGUfJzdX5UH-49" value="EmptyReview" style="shape=umlLifeline;perimeter=lifelinePerimeter;whiteSpace=wrap;html=1;container=1;dropTarget=0;collapsible=0;recursiveResize=0;outlineConnect=0;portConstraint=eastwest;newEdgeStyle={&quot;curved&quot;:0,&quot;rounded&quot;:0};fontSize=14;fontStyle=1;fillColor=#dae8fc;strokeColor=#6c8ebf;" vertex="1" parent="1">
          <mxGeometry x="760" y="-40" width="110" height="2210" as="geometry" />
        </mxCell>
        <mxCell id="4y1BVkQ9TwGUfJzdX5UH-50" value="" style="html=1;points=[[0,0,0,0,5],[0,1,0,0,-5],[1,0,0,0,5],[1,1,0,0,-5]];perimeter=orthogonalPerimeter;outlineConnect=0;targetShapes=umlLifeline;portConstraint=eastwest;newEdgeStyle={&quot;curved&quot;:0,&quot;rounded&quot;:0};strokeColor=#000000;fillColor=#dae8fc;" vertex="1" parent="4y1BVkQ9TwGUfJzdX5UH-49">
          <mxGeometry x="50" y="900" width="10" height="110" as="geometry" />
        </mxCell>
        <mxCell id="4y1BVkQ9TwGUfJzdX5UH-51" value="call" style="html=1;verticalAlign=bottom;startArrow=oval;startFill=1;endArrow=block;startSize=8;curved=0;rounded=0;fontSize=13;fontStyle=2;labelBackgroundColor=none;" edge="1" parent="1">
          <mxGeometry width="60" relative="1" as="geometry">
            <mxPoint x="660" y="873" as="sourcePoint" />
            <mxPoint x="814.5" y="873" as="targetPoint" />
            <mxPoint as="offset" />
          </mxGeometry>
        </mxCell>
        <mxCell id="4y1BVkQ9TwGUfJzdX5UH-52" value="click &quot;Ok&quot;" style="html=1;verticalAlign=bottom;startArrow=oval;startFill=1;endArrow=block;startSize=8;curved=0;rounded=0;fontSize=13;fontStyle=2;labelBackgroundColor=none;" edge="1" parent="1" source="4y1BVkQ9TwGUfJzdX5UH-1">
          <mxGeometry width="60" relative="1" as="geometry">
            <mxPoint x="-709.9966666666666" y="910" as="sourcePoint" />
            <mxPoint x="815.67" y="910" as="targetPoint" />
          </mxGeometry>
        </mxCell>
        <mxCell id="4y1BVkQ9TwGUfJzdX5UH-53" value="" style="html=1;points=[[0,0,0,0,5],[0,1,0,0,-5],[1,0,0,0,5],[1,1,0,0,-5]];perimeter=orthogonalPerimeter;outlineConnect=0;targetShapes=umlLifeline;portConstraint=eastwest;newEdgeStyle={&quot;curved&quot;:0,&quot;rounded&quot;:0};strokeColor=#000000;fillColor=#dae8fc;" vertex="1" parent="1">
          <mxGeometry x="650" y="930" width="10" height="110" as="geometry" />
        </mxCell>
        <mxCell id="4y1BVkQ9TwGUfJzdX5UH-54" value="call" style="html=1;verticalAlign=bottom;startArrow=oval;startFill=1;endArrow=block;startSize=8;curved=0;rounded=0;fontSize=13;fontStyle=2;labelBackgroundColor=none;" edge="1" parent="1">
          <mxGeometry width="60" relative="1" as="geometry">
            <mxPoint x="810" y="947" as="sourcePoint" />
            <mxPoint x="660" y="947" as="targetPoint" />
            <mxPoint as="offset" />
          </mxGeometry>
        </mxCell>
        <mxCell id="4y1BVkQ9TwGUfJzdX5UH-55" value="Write a review correct &amp;amp; click &quot;Pusblish&quot;" style="html=1;verticalAlign=bottom;startArrow=oval;startFill=1;endArrow=block;startSize=8;curved=0;rounded=0;fontSize=13;fontStyle=2;labelBackgroundColor=none;" edge="1" parent="1">
          <mxGeometry width="60" relative="1" as="geometry">
            <mxPoint x="-810" y="980" as="sourcePoint" />
            <mxPoint x="650" y="980" as="targetPoint" />
          </mxGeometry>
        </mxCell>
        <mxCell id="4y1BVkQ9TwGUfJzdX5UH-58" value="submitReview()" style="html=1;verticalAlign=bottom;startArrow=oval;startFill=1;endArrow=block;startSize=8;curved=0;rounded=0;fontSize=13;fontStyle=2;labelBackgroundColor=none;" edge="1" parent="1">
          <mxGeometry x="0.0038" width="60" relative="1" as="geometry">
            <mxPoint x="647.5" y="1020" as="sourcePoint" />
            <mxPoint x="-337.5" y="1020" as="targetPoint" />
            <mxPoint as="offset" />
          </mxGeometry>
        </mxCell>
        <mxCell id="4y1BVkQ9TwGUfJzdX5UH-59" value="checkReviewValidation()" style="html=1;align=left;spacingLeft=2;endArrow=block;rounded=0;edgeStyle=orthogonalEdgeStyle;curved=0;rounded=0;fontSize=13;fontStyle=2" edge="1" parent="1">
          <mxGeometry relative="1" as="geometry">
            <mxPoint x="-340" y="1090" as="sourcePoint" />
            <Array as="points">
              <mxPoint x="-310" y="1120" />
            </Array>
            <mxPoint x="-335" y="1120.0588235294122" as="targetPoint" />
          </mxGeometry>
        </mxCell>
        <mxCell id="4y1BVkQ9TwGUfJzdX5UH-60" value="alt" style="shape=umlFrame;whiteSpace=wrap;html=1;pointerEvents=0;" vertex="1" parent="1">
          <mxGeometry x="-920" y="1140" width="2410" height="480" as="geometry" />
        </mxCell>
        <mxCell id="4y1BVkQ9TwGUfJzdX5UH-61" value="ReviewCompleted" style="shape=umlLifeline;perimeter=lifelinePerimeter;whiteSpace=wrap;html=1;container=1;dropTarget=0;collapsible=0;recursiveResize=0;outlineConnect=0;portConstraint=eastwest;newEdgeStyle={&quot;curved&quot;:0,&quot;rounded&quot;:0};fontSize=14;fontStyle=1;fillColor=#dae8fc;strokeColor=#6c8ebf;" vertex="1" parent="1">
          <mxGeometry x="920" y="-40" width="140" height="2210" as="geometry" />
        </mxCell>
        <mxCell id="4y1BVkQ9TwGUfJzdX5UH-62" value="" style="html=1;points=[[0,0,0,0,5],[0,1,0,0,-5],[1,0,0,0,5],[1,1,0,0,-5]];perimeter=orthogonalPerimeter;outlineConnect=0;targetShapes=umlLifeline;portConstraint=eastwest;newEdgeStyle={&quot;curved&quot;:0,&quot;rounded&quot;:0};strokeColor=#000000;fillColor=#dae8fc;" vertex="1" parent="4y1BVkQ9TwGUfJzdX5UH-61">
          <mxGeometry x="65" y="1450" width="10" height="60" as="geometry" />
        </mxCell>
        <mxCell id="4y1BVkQ9TwGUfJzdX5UH-63" value="DuplicateReview" style="shape=umlLifeline;perimeter=lifelinePerimeter;whiteSpace=wrap;html=1;container=1;dropTarget=0;collapsible=0;recursiveResize=0;outlineConnect=0;portConstraint=eastwest;newEdgeStyle={&quot;curved&quot;:0,&quot;rounded&quot;:0};fontSize=14;fontStyle=1;fillColor=#dae8fc;strokeColor=#6c8ebf;" vertex="1" parent="1">
          <mxGeometry x="1080" y="-40" width="140" height="2210" as="geometry" />
        </mxCell>
        <mxCell id="4y1BVkQ9TwGUfJzdX5UH-64" value="" style="html=1;points=[[0,0,0,0,5],[0,1,0,0,-5],[1,0,0,0,5],[1,1,0,0,-5]];perimeter=orthogonalPerimeter;outlineConnect=0;targetShapes=umlLifeline;portConstraint=eastwest;newEdgeStyle={&quot;curved&quot;:0,&quot;rounded&quot;:0};strokeColor=#000000;fillColor=#dae8fc;" vertex="1" parent="4y1BVkQ9TwGUfJzdX5UH-63">
          <mxGeometry x="65" y="1580" width="10" height="60" as="geometry" />
        </mxCell>
        <mxCell id="4y1BVkQ9TwGUfJzdX5UH-65" value="" style="html=1;points=[[0,0,0,0,5],[0,1,0,0,-5],[1,0,0,0,5],[1,1,0,0,-5]];perimeter=orthogonalPerimeter;outlineConnect=0;targetShapes=umlLifeline;portConstraint=eastwest;newEdgeStyle={&quot;curved&quot;:0,&quot;rounded&quot;:0};strokeColor=#000000;fillColor=#dae8fc;" vertex="1" parent="1">
          <mxGeometry x="-80" y="1200" width="10" height="140" as="geometry" />
        </mxCell>
        <mxCell id="4y1BVkQ9TwGUfJzdX5UH-66" value="Save Review" style="text;html=1;align=center;verticalAlign=middle;resizable=0;points=[];autosize=1;fontSize=14;fontStyle=2;fillColor=#f8cecc;strokeColor=#b85450;" vertex="1" parent="1">
          <mxGeometry x="-755" y="1160" width="110" height="30" as="geometry" />
        </mxCell>
        <mxCell id="4y1BVkQ9TwGUfJzdX5UH-67" value="Duplicate Review" style="text;html=1;align=center;verticalAlign=middle;resizable=0;points=[];autosize=1;fontSize=14;fontStyle=2;fillColor=#f8cecc;strokeColor=#b85450;" vertex="1" parent="1">
          <mxGeometry x="-760" y="1480" width="130" height="30" as="geometry" />
        </mxCell>
        <mxCell id="4y1BVkQ9TwGUfJzdX5UH-68" value="saveReview()" style="html=1;verticalAlign=bottom;startArrow=oval;startFill=1;endArrow=block;startSize=8;curved=0;rounded=0;fontSize=13;fontStyle=2;labelBackgroundColor=none;" edge="1" parent="1">
          <mxGeometry width="60" relative="1" as="geometry">
            <mxPoint x="-340" y="1220" as="sourcePoint" />
            <mxPoint x="-80" y="1220" as="targetPoint" />
            <mxPoint as="offset" />
          </mxGeometry>
        </mxCell>
        <mxCell id="4y1BVkQ9TwGUfJzdX5UH-70" value="Review" style="shape=umlLifeline;perimeter=lifelinePerimeter;whiteSpace=wrap;html=1;container=1;dropTarget=0;collapsible=0;recursiveResize=0;outlineConnect=0;portConstraint=eastwest;newEdgeStyle={&quot;curved&quot;:0,&quot;rounded&quot;:0};fontSize=14;fontStyle=1;fillColor=#dae8fc;strokeColor=#6c8ebf;" vertex="1" parent="1">
          <mxGeometry x="1250" y="-40" width="80" height="2210" as="geometry" />
        </mxCell>
        <mxCell id="4y1BVkQ9TwGUfJzdX5UH-71" value="" style="html=1;points=[[0,0,0,0,5],[0,1,0,0,-5],[1,0,0,0,5],[1,1,0,0,-5]];perimeter=orthogonalPerimeter;outlineConnect=0;targetShapes=umlLifeline;portConstraint=eastwest;newEdgeStyle={&quot;curved&quot;:0,&quot;rounded&quot;:0};strokeColor=#000000;fillColor=#dae8fc;" vertex="1" parent="4y1BVkQ9TwGUfJzdX5UH-70">
          <mxGeometry x="35" y="1250" width="10" height="90" as="geometry" />
        </mxCell>
        <mxCell id="4y1BVkQ9TwGUfJzdX5UH-72" value="ReviewMapper" style="shape=umlLifeline;perimeter=lifelinePerimeter;whiteSpace=wrap;html=1;container=1;dropTarget=0;collapsible=0;recursiveResize=0;outlineConnect=0;portConstraint=eastwest;newEdgeStyle={&quot;curved&quot;:0,&quot;rounded&quot;:0};fontSize=14;fontStyle=1;fillColor=#dae8fc;strokeColor=#6c8ebf;" vertex="1" parent="1">
          <mxGeometry x="1380" y="-40" width="120" height="2210" as="geometry" />
        </mxCell>
        <mxCell id="4y1BVkQ9TwGUfJzdX5UH-73" value="" style="html=1;points=[[0,0,0,0,5],[0,1,0,0,-5],[1,0,0,0,5],[1,1,0,0,-5]];perimeter=orthogonalPerimeter;outlineConnect=0;targetShapes=umlLifeline;portConstraint=eastwest;newEdgeStyle={&quot;curved&quot;:0,&quot;rounded&quot;:0};strokeColor=#000000;fillColor=#dae8fc;" vertex="1" parent="4y1BVkQ9TwGUfJzdX5UH-72">
          <mxGeometry x="55" y="1320" width="10" height="110" as="geometry" />
        </mxCell>
        <mxCell id="4y1BVkQ9TwGUfJzdX5UH-74" value="create review" style="html=1;verticalAlign=bottom;endArrow=open;dashed=1;endSize=8;curved=0;rounded=0;fontStyle=2;fontSize=13;" edge="1" parent="1">
          <mxGeometry relative="1" as="geometry">
            <mxPoint x="-70.00000000000045" y="1239" as="sourcePoint" />
            <mxPoint x="1290" y="1239" as="targetPoint" />
          </mxGeometry>
        </mxCell>
        <mxCell id="4y1BVkQ9TwGUfJzdX5UH-75" value="return review" style="html=1;verticalAlign=bottom;endArrow=open;dashed=1;endSize=8;curved=0;rounded=0;fontStyle=2;fontSize=13;" edge="1" parent="1">
          <mxGeometry relative="1" as="geometry">
            <mxPoint x="1286" y="1283" as="sourcePoint" />
            <mxPoint x="-69.00000000000045" y="1283" as="targetPoint" />
          </mxGeometry>
        </mxCell>
        <mxCell id="4y1BVkQ9TwGUfJzdX5UH-76" value="save()" style="html=1;verticalAlign=bottom;startArrow=oval;startFill=1;endArrow=block;startSize=8;curved=0;rounded=0;fontSize=13;fontStyle=2;labelBackgroundColor=none;" edge="1" parent="1" target="4y1BVkQ9TwGUfJzdX5UH-72">
          <mxGeometry width="60" relative="1" as="geometry">
            <mxPoint x="-70" y="1320" as="sourcePoint" />
            <mxPoint x="190" y="1320" as="targetPoint" />
            <mxPoint as="offset" />
          </mxGeometry>
        </mxCell>
        <mxCell id="4y1BVkQ9TwGUfJzdX5UH-77" value="" style="html=1;points=[[0,0,0,0,5],[0,1,0,0,-5],[1,0,0,0,5],[1,1,0,0,-5]];perimeter=orthogonalPerimeter;outlineConnect=0;targetShapes=umlLifeline;portConstraint=eastwest;newEdgeStyle={&quot;curved&quot;:0,&quot;rounded&quot;:0};strokeColor=#000000;fillColor=#dae8fc;" vertex="1" parent="1">
          <mxGeometry x="335" y="1340" width="10" height="50" as="geometry" />
        </mxCell>
        <mxCell id="4y1BVkQ9TwGUfJzdX5UH-79" value="save" style="html=1;verticalAlign=bottom;startArrow=oval;startFill=1;endArrow=block;startSize=8;curved=0;rounded=0;fontSize=13;fontStyle=2;labelBackgroundColor=none;" edge="1" parent="1">
          <mxGeometry width="60" relative="1" as="geometry">
            <mxPoint x="1439.500000000001" y="1366" as="sourcePoint" />
            <mxPoint x="345" y="1366" as="targetPoint" />
            <mxPoint as="offset" />
          </mxGeometry>
        </mxCell>
        <mxCell id="4y1BVkQ9TwGUfJzdX5UH-80" value="call" style="html=1;verticalAlign=bottom;startArrow=oval;startFill=1;endArrow=block;startSize=8;curved=0;rounded=0;fontSize=13;fontStyle=2;labelBackgroundColor=none;" edge="1" parent="1" target="4y1BVkQ9TwGUfJzdX5UH-61">
          <mxGeometry width="60" relative="1" as="geometry">
            <mxPoint x="-340" y="1438.67" as="sourcePoint" />
            <mxPoint x="-80" y="1438.67" as="targetPoint" />
            <mxPoint as="offset" />
          </mxGeometry>
        </mxCell>
        <mxCell id="4y1BVkQ9TwGUfJzdX5UH-82" value="call" style="html=1;verticalAlign=bottom;startArrow=oval;startFill=1;endArrow=block;startSize=8;curved=0;rounded=0;fontSize=13;fontStyle=2;labelBackgroundColor=none;" edge="1" parent="1" target="4y1BVkQ9TwGUfJzdX5UH-63">
          <mxGeometry width="60" relative="1" as="geometry">
            <mxPoint x="-340" y="1570" as="sourcePoint" />
            <mxPoint x="990" y="1570.33" as="targetPoint" />
            <mxPoint as="offset" />
          </mxGeometry>
        </mxCell>
        <mxCell id="4y1BVkQ9TwGUfJzdX5UH-86" value="addPoints()" style="html=1;verticalAlign=bottom;startArrow=oval;startFill=1;endArrow=block;startSize=8;curved=0;rounded=0;fontSize=13;fontStyle=2;labelBackgroundColor=none;" edge="1" parent="1">
          <mxGeometry width="60" relative="1" as="geometry">
            <mxPoint x="-340" y="1678.67" as="sourcePoint" />
            <mxPoint x="-80" y="1678.67" as="targetPoint" />
            <mxPoint as="offset" />
          </mxGeometry>
        </mxCell>
      </root>
    </mxGraphModel>
  </diagram>
</mxfile>
